<svg width="370" height="72" viewBox="0 0 370 72" fill="none" xmlns="http://www.w3.org/2000/svg">
<rect width="370" height="72" rx="10" fill="black"/>
<path d="M58.736 44.304C58.736 46.512 58.144 48.32 56.96 49.728C55.808 51.104 54.368 52.128 52.64 52.8C51.52 53.248 50.272 53.568 48.896 53.76C47.552 53.92 46.176 54 44.768 54H29.648V19.296H43.568C45.008 19.296 46.336 19.328 47.552 19.392C48.768 19.456 49.904 19.648 50.96 19.968C52.88 20.512 54.448 21.44 55.664 22.752C56.912 24.064 57.536 25.792 57.536 27.936C57.536 30.176 56.88 31.936 55.568 33.216C54.256 34.464 52.48 35.36 50.24 35.904C52.8 36.352 54.848 37.248 56.384 38.592C57.952 39.904 58.736 41.808 58.736 44.304ZM48.8 29.136C48.8 28.336 48.64 27.664 48.32 27.12C48 26.576 47.568 26.144 47.024 25.824C46.512 25.504 45.92 25.28 45.248 25.152C44.576 24.992 43.872 24.912 43.136 24.912H38.24V33.552H42.752C43.552 33.552 44.304 33.488 45.008 33.36C45.744 33.232 46.384 33.008 46.928 32.688C47.504 32.368 47.952 31.92 48.272 31.344C48.624 30.768 48.8 30.032 48.8 29.136ZM49.76 43.68C49.76 42.752 49.6 41.984 49.28 41.376C48.992 40.768 48.576 40.288 48.032 39.936C47.488 39.552 46.848 39.296 46.112 39.168C45.408 39.008 44.624 38.928 43.76 38.928H38.24V48.336H43.424C44.256 48.336 45.056 48.272 45.824 48.144C46.592 48.016 47.264 47.776 47.84 47.424C48.416 47.072 48.88 46.608 49.232 46.032C49.584 45.424 49.76 44.64 49.76 43.68ZM67.0258 54V19.296H75.4258V54H67.0258ZM84.917 25.392V19.296H93.317V25.392H84.917ZM84.917 54V29.76H93.317V54H84.917ZM112.648 35.04V45.072C112.648 46.48 112.856 47.472 113.272 48.048C113.72 48.624 114.664 48.912 116.104 48.912C116.456 48.912 116.824 48.896 117.208 48.864C117.624 48.832 118.04 48.784 118.456 48.72V53.952C117.496 54.08 116.568 54.176 115.672 54.24C114.776 54.336 113.896 54.384 113.032 54.384C111.56 54.384 110.28 54.272 109.192 54.048C108.136 53.856 107.256 53.488 106.552 52.944C105.88 52.4 105.384 51.664 105.064 50.736C104.744 49.808 104.584 48.608 104.584 47.136V35.04H100.024V29.76H104.584V25.44L112.648 22.272V29.76H118.504V35.04H112.648ZM123.892 54V48.768L136.18 34.992H124.516V29.76H145.588V35.136L133.732 48.864H145.924V54H123.892ZM174.854 54C174.63 53.296 174.422 52.48 174.23 51.552C174.07 50.624 173.91 49.392 173.75 47.856C173.59 46.352 173.43 45.088 173.27 44.064C173.11 43.008 172.838 42.16 172.454 41.52C172.102 40.88 171.59 40.432 170.918 40.176C170.246 39.888 169.302 39.744 168.086 39.744H163.19V54H154.214V19.296H169.142C170.902 19.296 172.454 19.36 173.798 19.488C175.174 19.616 176.502 19.952 177.782 20.496C179.414 21.232 180.694 22.224 181.622 23.472C182.582 24.72 183.062 26.256 183.062 28.08C183.062 29.52 182.774 30.8 182.198 31.92C181.654 33.008 180.886 33.92 179.894 34.656C179.254 35.136 178.55 35.536 177.782 35.856C177.014 36.144 176.118 36.4 175.094 36.624C176.502 36.656 177.638 36.864 178.502 37.248C179.366 37.6 180.054 38.16 180.566 38.928C181.078 39.696 181.462 40.688 181.718 41.904C182.006 43.12 182.246 44.576 182.438 46.272C182.598 47.712 182.774 49.056 182.966 50.304C183.19 51.552 183.574 52.784 184.118 54H174.854ZM174.422 29.52C174.422 28.528 174.214 27.744 173.798 27.168C173.414 26.592 172.886 26.144 172.214 25.824C171.542 25.504 170.774 25.296 169.91 25.2C169.078 25.104 168.214 25.056 167.318 25.056H163.19V34.176H166.982C167.878 34.176 168.774 34.128 169.67 34.032C170.566 33.936 171.366 33.728 172.07 33.408C172.774 33.088 173.334 32.624 173.75 32.016C174.198 31.408 174.422 30.576 174.422 29.52ZM198.873 43.248C198.873 44.208 198.969 45.104 199.161 45.936C199.353 46.768 199.657 47.504 200.073 48.144C200.489 48.752 201.017 49.232 201.657 49.584C202.329 49.936 203.145 50.112 204.105 50.112C206.857 50.112 208.409 48.736 208.761 45.984H216.729C216.569 47.136 216.233 48.16 215.721 49.056C215.241 49.952 214.617 50.752 213.849 51.456C212.633 52.576 211.193 53.376 209.529 53.856C207.865 54.304 206.025 54.528 204.009 54.528C201.577 54.528 199.497 54.224 197.769 53.616C196.073 52.976 194.665 52.016 193.545 50.736C192.617 49.712 191.913 48.48 191.433 47.04C190.953 45.568 190.713 43.968 190.713 42.24C190.713 38.176 191.833 34.976 194.073 32.64C196.345 30.304 199.705 29.136 204.153 29.136C206.905 29.136 209.289 29.664 211.305 30.72C213.353 31.776 214.873 33.456 215.865 35.76C216.345 36.88 216.649 38.032 216.777 39.216C216.905 40.368 216.969 41.712 216.969 43.248H198.873ZM208.905 39.12C208.905 37.296 208.505 35.888 207.705 34.896C206.937 33.904 205.769 33.408 204.201 33.408C202.601 33.408 201.337 33.936 200.409 34.992C199.481 36.016 199.017 37.392 199.017 39.12H208.905ZM249.43 44.832C249.334 46.72 248.95 48.304 248.278 49.584C247.638 50.832 246.758 51.824 245.638 52.56C244.55 53.296 243.254 53.808 241.75 54.096C240.278 54.416 238.662 54.576 236.902 54.576C234.662 54.576 232.742 54.32 231.142 53.808C229.542 53.264 228.182 52.464 227.062 51.408C225.942 50.32 225.062 48.992 224.422 47.424C223.814 45.824 223.51 44.032 223.51 42.048C223.51 40.032 223.83 38.208 224.47 36.576C225.11 34.944 226.038 33.568 227.254 32.448C228.406 31.36 229.798 30.528 231.43 29.952C233.094 29.376 235.03 29.088 237.238 29.088C240.726 29.088 243.542 29.824 245.686 31.296C247.83 32.736 249.046 35.136 249.334 38.496H241.126C241.062 36.96 240.71 35.76 240.07 34.896C239.462 34.032 238.47 33.6 237.094 33.6C236.07 33.6 235.222 33.84 234.55 34.32C233.91 34.8 233.398 35.424 233.014 36.192C232.662 36.96 232.422 37.84 232.294 38.832C232.166 39.792 232.102 40.768 232.102 41.76C232.102 42.752 232.166 43.744 232.294 44.736C232.422 45.696 232.662 46.576 233.014 47.376C233.366 48.144 233.846 48.768 234.454 49.248C235.094 49.728 235.926 49.968 236.95 49.968C238.486 49.968 239.542 49.52 240.118 48.624C240.726 47.696 241.062 46.432 241.126 44.832H249.43ZM283.353 41.808C283.353 43.856 283.017 45.68 282.345 47.28C281.705 48.848 280.777 50.176 279.561 51.264C278.345 52.352 276.873 53.184 275.145 53.76C273.417 54.304 271.465 54.576 269.289 54.576C267.113 54.576 265.161 54.304 263.433 53.76C261.737 53.184 260.297 52.352 259.113 51.264C257.929 50.176 257.017 48.848 256.377 47.28C255.737 45.68 255.417 43.856 255.417 41.808C255.417 39.92 255.721 38.224 256.329 36.72C256.937 35.216 257.801 33.92 258.921 32.832C261.481 30.368 265.017 29.136 269.529 29.136C271.673 29.136 273.593 29.424 275.289 30C276.985 30.576 278.425 31.408 279.609 32.496C280.825 33.552 281.753 34.864 282.393 36.432C283.033 38 283.353 39.792 283.353 41.808ZM274.713 41.808C274.713 40.784 274.617 39.792 274.425 38.832C274.265 37.84 273.977 36.976 273.561 36.24C273.145 35.472 272.585 34.864 271.881 34.416C271.209 33.936 270.345 33.696 269.289 33.696C268.233 33.696 267.369 33.936 266.697 34.416C266.025 34.864 265.481 35.472 265.065 36.24C264.681 36.976 264.409 37.84 264.249 38.832C264.089 39.792 264.009 40.784 264.009 41.808C264.009 42.768 264.089 43.744 264.249 44.736C264.409 45.728 264.697 46.624 265.113 47.424C265.529 48.256 266.073 48.896 266.745 49.344C267.417 49.792 268.281 50.016 269.337 50.016C270.361 50.016 271.209 49.776 271.881 49.296C272.585 48.816 273.145 48.192 273.561 47.424C273.977 46.656 274.265 45.792 274.425 44.832C274.617 43.84 274.713 42.832 274.713 41.808ZM308.478 36.624C308.03 36.56 307.614 36.512 307.23 36.48C306.846 36.416 306.478 36.384 306.126 36.384C303.79 36.384 302.094 37.088 301.038 38.496C300.59 39.136 300.27 39.888 300.078 40.752C299.886 41.584 299.79 42.576 299.79 43.728V54H291.39V36.24C291.39 35.024 291.374 33.92 291.342 32.928C291.342 31.936 291.31 30.88 291.246 29.76H299.31C299.31 29.856 299.326 30.128 299.358 30.576C299.39 31.024 299.422 31.52 299.454 32.064C299.486 32.576 299.502 33.072 299.502 33.552C299.534 34 299.55 34.288 299.55 34.416C300.382 32.752 301.406 31.552 302.622 30.816C303.838 30.048 305.342 29.664 307.134 29.664C307.358 29.664 307.566 29.664 307.758 29.664C307.982 29.664 308.222 29.696 308.478 29.76V36.624ZM332.657 54C332.657 53.936 332.641 53.76 332.609 53.472C332.609 53.184 332.593 52.864 332.561 52.512C332.529 52.128 332.497 51.776 332.465 51.456C332.465 51.136 332.465 50.912 332.465 50.784C331.377 52.096 330.257 53.056 329.105 53.664C327.985 54.24 326.513 54.528 324.689 54.528C322.833 54.528 321.217 54.208 319.841 53.568C318.465 52.928 317.329 52.048 316.433 50.928C315.537 49.808 314.865 48.496 314.417 46.992C314.001 45.456 313.793 43.792 313.793 42C313.793 40.336 314.001 38.736 314.417 37.2C314.833 35.632 315.473 34.256 316.337 33.072C317.201 31.888 318.305 30.944 319.649 30.24C320.993 29.536 322.609 29.184 324.497 29.184C326.225 29.184 327.713 29.472 328.961 30.048C330.241 30.624 331.425 31.6 332.513 32.976V19.296H340.913V47.28C340.913 48.496 340.913 49.648 340.913 50.736C340.945 51.824 340.993 52.912 341.057 54H332.657ZM332.705 41.952C332.705 40.896 332.609 39.888 332.417 38.928C332.257 37.968 331.953 37.12 331.505 36.384C331.089 35.648 330.529 35.072 329.825 34.656C329.153 34.208 328.305 33.984 327.281 33.984C326.289 33.984 325.473 34.208 324.833 34.656C324.193 35.104 323.681 35.696 323.297 36.432C322.945 37.136 322.689 37.968 322.529 38.928C322.401 39.888 322.337 40.864 322.337 41.856C322.337 42.88 322.401 43.872 322.529 44.832C322.689 45.76 322.961 46.592 323.345 47.328C323.761 48.064 324.305 48.656 324.977 49.104C325.649 49.552 326.513 49.776 327.569 49.776C328.529 49.776 329.329 49.552 329.969 49.104C330.641 48.624 331.169 48.016 331.553 47.28C331.969 46.544 332.257 45.712 332.417 44.784C332.609 43.856 332.705 42.912 332.705 41.952Z" fill="white"/>
</svg>
